<svg xmlns="http://www.w3.org/2000/svg" viewBox="0 0 299.9 480.1" preserveAspectRatio="none">
  <g transform="matrix(2.310899, 0, 0, 2.339422, 0.34548, 0.261079)">
    <g>
      <g>
        <ellipse cx="5.15" cy="26.888" rx="5" ry="5"></ellipse>
        <ellipse cx="115.15" cy="26.888" rx="5" ry="5"></ellipse>
        <ellipse cx="59.95" cy="4.8884" rx="5" ry="5"></ellipse>
      </g>
      <path d="m59.95 11.258c-3.138 9.905-7.943 24.438-10.875 34.406-7.395-6.83-17.769-19.095-37.281-17.844 17.031 6.229 18.344 20.471 18.344 35.562h59.625c0-15.092 1.3132-29.334 18.344-35.562-19.515-1.252-29.89 11.014-37.284 17.844-2.932-9.968-7.737-24.502-10.875-34.406z"></path>
    </g>
    <g fill="#a00">
      <g>
        <ellipse transform="scale(1,-1)" cx="4.8505" cy="-178.11" rx="5" ry="5"></ellipse>
        <ellipse transform="scale(1,-1)" cx="114.85" cy="-178.11" rx="5" ry="5"></ellipse>
        <ellipse transform="scale(1,-1)" cx="59.65" cy="-200.11" rx="5" ry="5"></ellipse>
      </g>
      <path d="m59.65 193.74c-3.138-9.905-7.943-24.438-10.875-34.406-7.395 6.83-17.769 19.095-37.281 17.844 17.031-6.229 18.344-20.471 18.344-35.562h59.625c0 15.092 1.3132 29.334 18.344 35.562-19.515 1.252-29.89-11.014-37.284-17.844-2.932 9.968-7.737 24.502-10.875 34.406z"></path>
    </g>
    <path d="m30.506 70.342c-3.5875 1.728-3.6049 14.964-1.9941 18.699-1.3827 1.07-8.4877 10.693-8.9023 15.395 1.323 4.2116 8.4278 1.1903 11.23 4.2617 0.79673 1.1015 0.51739 3.6065 0.58789 5.8125 11.509-1.0562 7.7871-7.4232 15.139-7.5293 3.914-0.143 0.88949 14.465-14.064 14.586-1.028 9.0852 6.4949 9.6913 14.779 10.299 2.6521 0.28824 4.3484 1.3876 5.541 2.793h19.18s-11.16-0.0135-11.16-32.158c0-32.145-11.158-32.158-11.158-32.158-6.5076-1.17e-4 -13.281-9e-4 -19.178 0z"></path>
    <path d="m91.179 134.66c3.5875-1.728 3.6049-14.964 1.9941-18.699 1.3827-1.07 8.4877-10.693 8.9023-15.395-1.323-4.2116-8.4278-1.1903-11.23-4.2617-0.79673-1.1015-0.51739-3.6065-0.58789-5.8125-11.509 1.0562-7.7871 7.4232-15.139 7.5293-3.914 0.143-0.88948-14.465 14.064-14.586 1.028-9.0852-6.4949-9.6913-14.779-10.299-2.6521-0.28824-4.3484-1.3876-5.541-2.793h-19.18s11.16 0.0135 11.16 32.158c0 32.145 11.158 32.158 11.158 32.158 6.5076 1.3e-4 13.281 9e-4 19.178 0z" fill="#a00"></path>
  </g>
</svg>