<?xml version="1.0" encoding="utf-8"?>
<!-- Generator: Adobe Illustrator 16.0.0, SVG Export Plug-In . SVG Version: 6.00 Build 0)  -->
<!DOCTYPE svg PUBLIC "-//W3C//DTD SVG 1.1//EN" "http://www.w3.org/Graphics/SVG/1.1/DTD/svg11.dtd">
<svg version="1.1" id="Layer_1" xmlns="http://www.w3.org/2000/svg" xmlns:xlink="http://www.w3.org/1999/xlink" x="0px" y="0px"
	 width="283.46px" height="85.04px" viewBox="0 0 283.46 85.04" enable-background="new 0 0 283.46 85.04" xml:space="preserve">
<g>
	<path fill="#130C0E" d="M32.518,21.449h-8.811v11.561h8.86c4.333,0,7.087-2.267,7.087-5.806
		C39.655,23.412,36.998,21.449,32.518,21.449 M39.754,50.38l-8.467-12.01h-7.581v12.01h-6.053V15.935h15.358
		c7.923,0,12.794,4.185,12.794,10.924c0,5.705-3.395,9.149-8.219,10.478L46.89,50.38H39.754z"/>
	<path fill="#130C0E" d="M82.514,42.254c0,2.316,1.181,3.25,3.197,3.25c1.331,0,2.512-0.293,3.692-0.887v4.879
		c-1.475,0.837-3.151,1.327-5.364,1.327c-4.383,0-7.482-1.92-7.482-7.632V29.513h-3.298v-5.115h3.298v-7.134h5.957v7.134h6.987
		v5.115h-6.987V42.254z"/>
	<path fill="#130C0E" d="M109.832,35.567c-0.396-3.838-2.657-6.837-6.596-6.837c-3.645,0-6.2,2.803-6.745,6.837H109.832z
		 M104.024,46.096c2.902,0,4.972-1.082,7.037-3.104l3.497,3.104c-2.461,2.956-5.859,4.875-10.632,4.875
		c-7.531,0-13.339-5.467-13.339-13.535c0-7.48,5.267-13.581,12.698-13.581c8.27,0,12.453,6.496,12.453,14.022
		c0,0.543-0.048,1.034-0.098,1.623H96.542C97.231,43.733,100.184,46.096,104.024,46.096"/>
	<path fill="#130C0E" d="M136.222,50.971c-10.044,0-17.529-7.832-17.529-17.766c0-9.84,7.338-17.859,17.774-17.859
		c6.351,0,10.188,2.214,13.489,5.365l-3.888,4.474c-2.759-2.556-5.714-4.281-9.648-4.281c-6.595,0-11.377,5.414-11.377,12.202
		c0,6.787,4.782,12.303,11.377,12.303c4.233,0,6.94-1.73,9.89-4.481l3.891,3.936C146.606,48.614,142.669,50.971,136.222,50.971"/>
	<path fill="#130C0E" d="M153.007,24.398h5.957v25.983h-5.957V24.398z M152.763,15.935h6.398v5.66h-6.398V15.935z"/>
	<path fill="#130C0E" d="M170.844,42.254c0,2.316,1.181,3.25,3.195,3.25c1.331,0,2.512-0.293,3.691-0.887v4.879
		c-1.471,0.837-3.144,1.327-5.364,1.327c-4.375,0-7.479-1.92-7.479-7.632V29.513h-3.295v-5.115h3.295v-7.134h5.957v7.134h6.99v5.115
		h-6.99V42.254z"/>
	<path fill="#130C0E" d="M196.373,51.117c-2.066,5.316-4.381,7.284-8.562,7.284c-2.509,0-4.332-0.59-6.153-1.573l2.021-4.431
		c1.078,0.591,2.263,0.982,3.492,0.982c1.676,0,2.71-0.738,3.691-3l-10.826-25.98h6.351l7.381,19.281l6.744-19.281h6.198
		L196.373,51.117z"/>
	<path fill="#130C0E" d="M58.358,45.427c-3.867,0-7.014-3.606-7.014-8.036c0-4.429,3.146-8.031,7.014-8.031
		c3.872,0,7.019,3.602,7.019,8.031C65.377,41.821,62.23,45.427,58.358,45.427 M65.262,24.398v2.284
		c-2.026-1.805-4.575-2.878-7.345-2.878c-6.586,0-11.928,6.08-11.928,13.582s5.341,13.581,11.928,13.581
		c2.77,0,5.32-1.073,7.345-2.877v2.292h5.907V24.398H65.262z"/>
	<path fill="#95DC81" d="M242.874,13.879c-16.443,0-29.821,13.166-29.821,29.348c0,16.187,13.378,29.354,29.821,29.354
		c2.085,0,4.008-0.265,3.416-0.198h-0.001c2.427-0.436,3.162-2.586,2.265-4.894l-0.003-0.01c2.399-0.539,4.669-1.415,6.755-2.576
		l0.004,0.006c0.906,2.333,3.391,3.133,4.788,2.258c7.614-5.322,12.6-14.066,12.6-23.939
		C272.697,27.045,259.316,13.879,242.874,13.879"/>
	<path fill="#25A400" d="M268.177,43.227c0,13.749-11.328,24.89-25.304,24.89c-13.972,0-25.302-11.141-25.302-24.89
		c0-13.742,11.33-24.881,25.302-24.881C256.849,18.346,268.177,29.485,268.177,43.227"/>
	<path fill="#FFFFFF" d="M246.289,72.382c5.211-0.365,11.354-3.128,13.809-5.215c-1.397,0.874-3.882,0.075-4.788-2.259l-0.391-0.999
		l-3.188-8.183l-1.483-3.812l4.088,0.192l1.328,0.061l1.326,0.063h0.004c2.246,0.103,2.829-1.159,1.294-2.802l-19.549-20.957
		c-1.537-1.648-2.795-1.153-2.795,1.1v28.659c0,2.251,1.288,2.773,2.861,1.167v-0.001l0.929-0.952l0.928-0.953l2.86-2.928
		l1.484,3.811l3.187,8.184l0.361,0.931C249.451,69.796,248.715,71.948,246.289,72.382"/>
	<path fill="#040707" d="M19.512,66.009c0.442,0,0.663,0.18,0.663,0.54c0,0.271-0.204,0.477-0.615,0.614
		c-0.706,0.255-1.057,0.709-1.057,1.365c0,0.523,0.205,0.933,0.614,1.229c0.353,0.245,0.8,0.369,1.341,0.369
		c1.082,0,2.029-0.315,2.841-0.946c0.508-0.401,0.763-0.91,0.763-1.524c0-0.377-0.074-0.718-0.221-1.021
		c-0.156-0.312-0.394-0.704-0.713-1.18c-0.492-0.737-0.906-1.409-1.243-2.016c-0.377-0.672-0.565-1.332-0.565-1.979
		c0-1.532,0.758-2.967,2.275-4.303c0.803-0.696,1.688-1.262,2.657-1.695c0.802-0.352,1.578-0.529,2.324-0.529
		c0.484,0,0.893,0.128,1.229,0.382c0.41,0.303,0.615,0.717,0.615,1.241c0,0.819-0.443,1.704-1.329,2.654
		c-0.836,0.894-1.812,1.623-2.927,2.188c-0.558,0.279-0.979,0.418-1.267,0.418c-0.189,0-0.356-0.077-0.504-0.233
		c-0.098-0.106-0.147-0.225-0.147-0.356c0-0.302,0.271-0.549,0.812-0.737c0.991-0.352,1.869-0.848,2.632-1.486
		c0.983-0.82,1.476-1.537,1.476-2.151c0-0.237-0.099-0.43-0.295-0.578c-0.156-0.115-0.341-0.172-0.553-0.172
		c-0.567,0-1.275,0.217-2.128,0.651c-1.148,0.582-2.05,1.332-2.706,2.25c-0.574,0.794-0.861,1.568-0.861,2.322
		c0,0.549,0.151,1.114,0.455,1.696c0.254,0.468,0.578,0.995,0.972,1.585c0.376,0.565,0.696,1.091,0.959,1.573
		c0.304,0.573,0.456,1.111,0.456,1.611c0,0.966-0.554,1.822-1.661,2.568c-0.942,0.623-2.01,0.934-3.197,0.934
		c-1.172,0-2.09-0.323-2.755-0.97c-0.5-0.493-0.75-1.058-0.75-1.698c0-0.712,0.238-1.31,0.713-1.793
		c0.287-0.296,0.627-0.516,1.021-0.664C19.105,66.062,19.331,66.009,19.512,66.009"/>
	<path fill="#040707" d="M29.208,66.66c0.689-0.721,1.295-1.286,1.82-1.696c0.795-0.614,1.328-0.921,1.599-0.921
		c0.131,0,0.246,0.049,0.344,0.147c0.09,0.09,0.135,0.188,0.135,0.295c0,0.155-0.143,0.41-0.43,0.762
		c-0.443,0.557-0.75,1.033-0.923,1.426c1.919-1.926,3.23-2.889,3.937-2.889c0.147,0,0.274,0.046,0.38,0.136
		c0.115,0.098,0.172,0.221,0.172,0.368c0,0.229-0.176,0.525-0.529,0.885c-1.549,1.599-2.324,2.909-2.324,3.934
		c0,0.418,0.074,0.718,0.222,0.897l0.319,0.405c0.065,0.074,0.099,0.168,0.099,0.283c0,0.131-0.054,0.254-0.16,0.369
		c-0.123,0.131-0.262,0.196-0.418,0.196c-0.271,0-0.521-0.173-0.75-0.517c-0.279-0.409-0.418-0.894-0.418-1.451
		c0-0.745,0.213-1.499,0.64-2.261c0.147-0.27,0.393-0.63,0.738-1.082c-0.697,0.525-1.406,1.246-2.127,2.164
		c-0.492,0.622-0.935,1.318-1.329,2.088c-0.188,0.369-0.41,0.554-0.664,0.554c-0.279,0-0.418-0.154-0.418-0.468
		c0-0.334,0.229-1.027,0.688-2.075c0.263-0.598,0.586-1.23,0.973-1.894c-1.402,1.081-2.456,2.548-3.161,4.399
		c-0.171,0.41-0.401,0.615-0.688,0.615c-0.131,0-0.238-0.049-0.32-0.146c-0.09-0.1-0.135-0.218-0.135-0.357
		c0-0.484,0.271-1.356,0.812-2.617c0.566-1.337,1.205-2.537,1.918-3.603c0.492-0.746,0.873-1.118,1.144-1.118
		c0.246,0,0.369,0.132,0.369,0.394c0,0.115-0.152,0.401-0.456,0.861C29.732,65.603,29.38,66.242,29.208,66.66"/>
	<path fill="#040707" d="M39.397,68.724c-0.271,0.476-0.537,0.878-0.799,1.205c-0.517,0.64-1.029,0.959-1.537,0.959
		c-0.443,0-0.787-0.209-1.033-0.627c-0.156-0.271-0.234-0.59-0.234-0.958c0-0.91,0.287-1.914,0.861-3.012
		c0.639-1.222,1.411-2.159,2.312-2.814c0.59-0.427,1.16-0.64,1.709-0.64c0.344,0,0.631,0.106,0.861,0.319
		c0.196,0.189,0.294,0.402,0.294,0.64c0,0.18-0.069,0.43-0.208,0.75c0.123,0.172,0.185,0.323,0.185,0.455
		c0,0.171-0.115,0.454-0.344,0.847c-0.238,0.401-0.475,0.935-0.713,1.598c-0.254,0.706-0.381,1.271-0.381,1.696
		c0,0.345,0.103,0.628,0.308,0.849c0.057,0.058,0.226,0.152,0.504,0.282c0.205,0.099,0.307,0.271,0.307,0.517
		c0,0.155-0.058,0.283-0.172,0.381c-0.123,0.106-0.266,0.16-0.43,0.16c-0.442,0-0.824-0.196-1.144-0.589
		c-0.262-0.32-0.394-0.723-0.394-1.205C39.347,69.373,39.364,69.101,39.397,68.724 M40.934,64.681
		c-0.099-0.181-0.205-0.313-0.32-0.399c-0.114-0.087-0.238-0.13-0.369-0.13c-0.624,0-1.299,0.545-2.029,1.635
		c-0.804,1.205-1.206,2.226-1.206,3.062c0,0.204,0.04,0.36,0.117,0.467c0.078,0.106,0.195,0.159,0.35,0.159
		c0.395,0,0.854-0.417,1.378-1.253c0.295-0.459,0.66-1.135,1.094-2.027c0.287-0.583,0.496-0.968,0.628-1.157
		C40.643,64.94,40.761,64.821,40.934,64.681"/>
	<path fill="#040707" d="M44.789,66.708c0.804-0.86,1.73-1.698,2.779-2.519c0.377-0.295,0.779-0.569,1.205-0.824
		c0.214-0.123,0.349-0.185,0.406-0.185c0.124,0,0.246,0.091,0.369,0.271c0.074,0.099,0.11,0.188,0.11,0.271
		c0,0.147-0.156,0.349-0.467,0.603c-0.837,0.664-1.255,1.163-1.255,1.5c0,0.188,0.107,0.282,0.32,0.282
		c0.353,0,0.959-0.291,1.82-0.873c0.147-0.099,0.27-0.146,0.368-0.146c0.066,0,0.131,0.032,0.197,0.099
		c0.074,0.072,0.111,0.15,0.111,0.232c0,0.246-0.345,0.622-1.033,1.131c-0.723,0.541-1.407,0.812-2.054,0.812
		c-0.263,0-0.504-0.069-0.726-0.21c-0.188-0.113-0.282-0.318-0.282-0.614c0-0.204,0.086-0.438,0.258-0.7
		c-0.647,0.46-1.411,1.245-2.288,2.359c-0.509,0.688-1.013,1.537-1.513,2.546c-0.188,0.375-0.422,0.564-0.701,0.564
		c-0.303,0-0.455-0.144-0.455-0.43c0-0.279,0.238-1.024,0.713-2.237c0.704-1.803,1.443-3.2,2.213-4.191
		c0.476-0.614,0.873-0.922,1.193-0.922c0.107,0,0.206,0.033,0.295,0.099c0.106,0.081,0.16,0.184,0.16,0.308
		c0,0.122-0.083,0.294-0.247,0.516c-0.033,0.041-0.25,0.315-0.652,0.823C45.269,65.754,44.986,66.234,44.789,66.708"/>
	<path fill="#040707" d="M55.002,62.837c-0.533,0.827-1.025,1.754-1.476,2.777c-0.647,1.458-0.971,2.549-0.971,3.27
		c0,0.205,0.043,0.361,0.129,0.468c0.085,0.105,0.215,0.159,0.387,0.159c0.41,0,0.906-0.385,1.489-1.155
		c0.369-0.475,0.697-0.95,0.983-1.426c0.155-0.271,0.324-0.405,0.504-0.405c0.106,0,0.196,0.036,0.271,0.11
		c0.065,0.074,0.099,0.147,0.099,0.221c0,0.305-0.398,0.979-1.193,2.028c-0.951,1.262-1.82,1.894-2.607,1.894
		c-0.418,0-0.767-0.192-1.046-0.578c-0.171-0.245-0.257-0.595-0.257-1.044c0-0.992,0.287-2.147,0.861-3.467
		c0.139-0.327,0.524-1.118,1.156-2.372c-0.222,0.058-0.39,0.086-0.504,0.086c-0.172,0-0.325-0.041-0.456-0.123
		c-0.18-0.114-0.271-0.258-0.271-0.43c0-0.205,0.119-0.369,0.357-0.492c0.065-0.032,0.369-0.086,0.91-0.16
		c0.197-0.032,0.483-0.109,0.861-0.232c0.287-0.518,0.754-1.218,1.402-2.103c0.36-0.491,0.61-0.811,0.75-0.959
		c0.197-0.204,0.369-0.307,0.516-0.307c0.107,0,0.213,0.057,0.32,0.172c0.099,0.106,0.148,0.214,0.148,0.319
		c0,0.213-0.229,0.635-0.688,1.267c-0.304,0.409-0.529,0.741-0.677,0.996c0.91-0.247,1.562-0.369,1.955-0.369
		c0.451,0,0.676,0.189,0.676,0.564c0,0.189-0.078,0.328-0.233,0.419c-0.083,0.049-0.295,0.09-0.64,0.123
		c-0.14-0.009-0.759,0.146-1.857,0.467C55.596,62.645,55.297,62.739,55.002,62.837"/>
	<path fill="#040707" d="M57.861,68.392v0.223c0,0.181,0.044,0.335,0.135,0.466c0.204,0.304,0.541,0.456,1.008,0.456
		c1.025,0,2.209-0.787,3.554-2.36c0.238-0.271,0.438-0.405,0.603-0.405c0.09,0,0.172,0.045,0.246,0.135
		c0.049,0.064,0.074,0.127,0.074,0.185c0,0.319-0.394,0.86-1.181,1.622c-0.615,0.599-1.271,1.086-1.968,1.463
		c-0.697,0.377-1.345,0.565-1.942,0.565c-0.615,0-1.099-0.213-1.451-0.64c-0.237-0.294-0.357-0.695-0.357-1.204
		c0-1.385,0.652-2.741,1.956-4.068c1.058-1.081,1.979-1.622,2.768-1.622c0.212,0,0.405,0.065,0.577,0.196
		c0.213,0.172,0.319,0.397,0.319,0.676c0,0.435-0.2,0.967-0.602,1.598C60.771,66.988,59.525,67.893,57.861,68.392 M58.131,67.434
		c0.574-0.196,1.025-0.417,1.353-0.663c0.574-0.443,1.029-0.942,1.366-1.5c0.123-0.197,0.185-0.372,0.185-0.527
		c0-0.165-0.078-0.246-0.234-0.246c-0.213,0-0.517,0.159-0.91,0.479C59.186,65.541,58.599,66.361,58.131,67.434"/>
	<path fill="#040707" d="M66.304,66.708c0.803-0.86,1.729-1.698,2.778-2.519c0.377-0.295,0.779-0.569,1.205-0.824
		c0.214-0.123,0.349-0.185,0.406-0.185c0.123,0,0.246,0.091,0.369,0.271c0.074,0.099,0.11,0.188,0.11,0.271
		c0,0.147-0.155,0.349-0.467,0.603c-0.836,0.664-1.254,1.163-1.254,1.5c0,0.188,0.106,0.282,0.319,0.282
		c0.353,0,0.959-0.291,1.82-0.873c0.147-0.099,0.271-0.146,0.369-0.146c0.065,0,0.131,0.032,0.197,0.099
		c0.074,0.072,0.11,0.15,0.11,0.232c0,0.246-0.344,0.622-1.033,1.131c-0.722,0.541-1.406,0.812-2.053,0.812
		c-0.263,0-0.505-0.069-0.726-0.21c-0.188-0.113-0.283-0.318-0.283-0.614c0-0.204,0.086-0.438,0.258-0.7
		c-0.647,0.46-1.41,1.245-2.288,2.359c-0.509,0.688-1.013,1.537-1.513,2.546c-0.188,0.375-0.422,0.564-0.701,0.564
		c-0.303,0-0.455-0.144-0.455-0.43c0-0.279,0.238-1.024,0.713-2.237c0.705-1.803,1.442-3.2,2.214-4.191
		c0.474-0.614,0.873-0.922,1.192-0.922c0.106,0,0.206,0.033,0.295,0.099c0.106,0.081,0.16,0.184,0.16,0.308
		c0,0.122-0.083,0.294-0.246,0.516c-0.033,0.041-0.25,0.315-0.652,0.823C66.783,65.754,66.5,66.234,66.304,66.708"/>
	<path fill="#040707" d="M81.085,64.3c0.697-0.59,1.324-0.886,1.882-0.886c0.344,0,0.627,0.145,0.848,0.431
		c0.205,0.254,0.307,0.549,0.307,0.885c0,0.64-0.209,1.414-0.627,2.323c-0.467,1.008-1.144,1.946-2.029,2.814
		c-0.73,0.722-1.427,1.082-2.091,1.082c-0.246,0-0.469-0.045-0.67-0.136c-0.201-0.09-0.378-0.225-0.535-0.405
		c-0.065,0.115-0.106,0.189-0.123,0.222c-0.139,0.303-0.236,0.487-0.289,0.554c-0.053,0.064-0.136,0.098-0.251,0.098
		c-0.148,0-0.287-0.086-0.418-0.259c-0.091-0.114-0.136-0.237-0.136-0.368c0-0.229,0.472-1.389,1.415-3.479
		c1.32-2.916,2.85-5.816,4.587-8.701c0.705-1.18,1.135-1.873,1.292-2.078c0.172-0.244,0.332-0.367,0.479-0.367
		c0.18,0,0.34,0.09,0.48,0.27c0.09,0.115,0.135,0.25,0.135,0.405c0,0.173-0.079,0.39-0.234,0.652
		c-0.033,0.057-0.291,0.479-0.775,1.266C82.848,60.917,81.767,62.809,81.085,64.3 M79.014,69.623
		c0.126,0.081,0.26,0.123,0.399,0.123c0.713,0,1.467-0.619,2.263-1.856c0.369-0.558,0.66-1.11,0.873-1.659
		c0.188-0.491,0.283-0.856,0.283-1.094c0-0.165-0.037-0.285-0.11-0.362c-0.073-0.078-0.188-0.117-0.345-0.117
		c-0.376,0-0.832,0.258-1.365,0.774c-0.533,0.508-1.058,1.24-1.574,2.2c-0.246,0.458-0.459,0.889-0.639,1.29l-0.16,0.332
		C78.762,69.417,78.887,69.541,79.014,69.623"/>
	<path fill="#040707" d="M89.232,67.311c-0.73,0.861-1.312,1.5-1.746,1.918c-0.861,0.819-1.579,1.229-2.152,1.229
		c-0.278,0-0.5-0.102-0.664-0.308c-0.123-0.164-0.184-0.368-0.184-0.613c0-0.886,0.523-2.062,1.574-3.527
		c1.065-1.492,1.836-2.237,2.312-2.237c0.131,0,0.247,0.058,0.345,0.172c0.09,0.09,0.135,0.196,0.135,0.319
		c0,0.181-0.047,0.339-0.142,0.473c-0.094,0.136-0.363,0.437-0.806,0.904c-0.468,0.483-0.897,1.008-1.291,1.573
		c-0.451,0.64-0.676,1.105-0.676,1.401c0,0.172,0.082,0.257,0.246,0.257c0.328,0,0.942-0.445,1.844-1.339
		c0.566-0.565,1.009-1.04,1.329-1.426c0.065-0.082,0.353-0.471,0.861-1.168c0.458-0.614,0.742-0.979,0.848-1.094
		c0.246-0.286,0.476-0.43,0.689-0.43c0.13,0,0.249,0.057,0.356,0.172c0.098,0.106,0.147,0.229,0.147,0.369
		c0,0.237-0.165,0.635-0.492,1.191c-0.394,0.681-0.754,1.315-1.083,1.905c-0.516,0.918-0.914,1.737-1.193,2.459
		c0.525-0.304,1.004-0.677,1.439-1.12c0.738-0.736,1.189-1.285,1.353-1.646c0.156-0.327,0.315-0.491,0.48-0.491
		c0.229,0,0.344,0.115,0.344,0.345c0,0.434-0.368,1.081-1.106,1.941c-0.886,1.032-1.976,1.909-3.272,2.63
		c-0.689,1.655-1.34,3.028-1.956,4.118c-1.147,2.008-2.332,3.011-3.554,3.011c-0.5,0-0.902-0.192-1.205-0.577
		c-0.237-0.295-0.356-0.668-0.356-1.119c0-1.277,0.897-2.585,2.694-3.921c0.524-0.394,1.303-0.885,2.336-1.475
		c0.418-0.237,0.746-0.43,0.984-0.577c0.147-0.377,0.373-0.877,0.676-1.5C88.684,68.459,88.979,67.853,89.232,67.311 M86.97,72.142
		c-0.869,0.442-1.759,1.072-2.669,1.893c-0.918,0.844-1.377,1.63-1.377,2.359c0,0.156,0.045,0.286,0.135,0.393
		c0.124,0.149,0.283,0.223,0.479,0.223c0.615,0,1.296-0.644,2.042-1.93c0.123-0.214,0.459-0.922,1.008-2.127
		C86.704,72.708,86.831,72.437,86.97,72.142"/>
	<path fill="#040707" d="M110.188,54.946c0.549,0,0.972,0.198,1.267,0.591c0.237,0.312,0.357,0.688,0.357,1.131
		c0,0.795-0.267,1.7-0.8,2.716c-0.466,0.877-1.049,1.664-1.746,2.359c-0.46,0.452-0.82,0.677-1.083,0.677
		c-0.172,0-0.332-0.086-0.479-0.258c-0.107-0.123-0.16-0.263-0.16-0.419c0-0.286,0.25-0.614,0.75-0.982
		c0.705-0.523,1.267-1.098,1.685-1.721c0.615-0.901,0.923-1.663,0.923-2.286c0-0.254-0.056-0.442-0.166-0.565
		c-0.111-0.123-0.277-0.185-0.499-0.185c-0.451,0-1.09,0.328-1.918,0.983c-0.943,0.737-1.939,1.741-2.989,3.011
		c-1.336,1.615-2.353,3.205-3.049,4.77c-0.722,1.622-1.083,3.007-1.083,4.154c0,0.549,0.16,1.017,0.48,1.401
		c0.352,0.434,0.782,0.651,1.291,0.651c0.885,0,2-0.689,3.346-2.064c0.401-0.418,0.889-1.024,1.463-1.819
		c0.376-0.508,0.619-0.868,0.726-1.081c0.123-0.238,0.266-0.357,0.431-0.357c0.18,0,0.27,0.086,0.27,0.258
		c0,0.369-0.459,1.197-1.377,2.482c-0.763,1.074-1.603,1.951-2.521,2.631c-1.033,0.762-2.008,1.143-2.926,1.143
		c-0.96,0-1.702-0.43-2.227-1.289c-0.335-0.549-0.504-1.176-0.504-1.881c0-1.771,0.836-4.003,2.509-6.698
		c1.427-2.295,2.931-4.143,4.513-5.544C108.041,55.549,109.213,54.946,110.188,54.946"/>
	<path fill="#040707" d="M114.634,62.825c0.672,0,1.008,0.41,1.008,1.229c0,1.09-0.503,2.471-1.512,4.142
		c-1.099,1.812-2.161,2.717-3.185,2.717c-0.476,0-0.824-0.221-1.046-0.663c-0.114-0.222-0.172-0.488-0.172-0.8
		c0-1.049,0.361-2.188,1.083-3.417c0.672-1.139,1.463-2.022,2.373-2.654C113.715,63.009,114.199,62.825,114.634,62.825
		 M113.355,67.471c-0.205-0.163-0.308-0.29-0.308-0.381c0-0.065,0.132-0.245,0.394-0.541c0.738-0.827,1.107-1.495,1.107-2.003
		c0-0.066-0.02-0.132-0.062-0.197c-0.065-0.124-0.167-0.185-0.307-0.185c-0.263,0-0.648,0.255-1.156,0.763
		c-0.656,0.655-1.156,1.331-1.5,2.027c-0.402,0.795-0.603,1.455-0.603,1.979c0,0.14,0.037,0.262,0.111,0.369
		c0.106,0.146,0.242,0.221,0.406,0.221c0.394,0,0.815-0.295,1.266-0.886c0.197-0.246,0.356-0.499,0.48-0.761
		C113.306,67.615,113.363,67.48,113.355,67.471"/>
	<path fill="#040707" d="M118.095,66.66c0.689-0.721,1.295-1.286,1.82-1.696c0.795-0.614,1.328-0.921,1.598-0.921
		c0.131,0,0.246,0.049,0.345,0.147c0.09,0.09,0.135,0.188,0.135,0.295c0,0.155-0.144,0.41-0.431,0.762
		c-0.442,0.557-0.75,1.033-0.922,1.426c1.918-1.926,3.23-2.889,3.936-2.889c0.147,0,0.274,0.046,0.381,0.136
		c0.115,0.098,0.172,0.221,0.172,0.368c0,0.229-0.177,0.525-0.529,0.885c-1.549,1.599-2.324,2.909-2.324,3.934
		c0,0.418,0.074,0.718,0.222,0.897l0.319,0.405c0.065,0.074,0.099,0.168,0.099,0.283c0,0.131-0.054,0.254-0.161,0.369
		c-0.123,0.131-0.262,0.196-0.418,0.196c-0.27,0-0.521-0.173-0.75-0.517c-0.279-0.409-0.418-0.894-0.418-1.451
		c0-0.745,0.213-1.499,0.639-2.261c0.148-0.27,0.394-0.63,0.738-1.082c-0.696,0.525-1.406,1.246-2.127,2.164
		c-0.492,0.622-0.935,1.318-1.328,2.088c-0.189,0.369-0.41,0.554-0.664,0.554c-0.278,0-0.418-0.154-0.418-0.468
		c0-0.334,0.229-1.027,0.689-2.075c0.262-0.598,0.586-1.23,0.971-1.894c-1.402,1.081-2.456,2.548-3.16,4.399
		c-0.172,0.41-0.401,0.615-0.689,0.615c-0.131,0-0.238-0.049-0.32-0.146c-0.09-0.1-0.135-0.218-0.135-0.357
		c0-0.484,0.271-1.356,0.812-2.617c0.566-1.337,1.206-2.537,1.918-3.603c0.492-0.746,0.874-1.118,1.144-1.118
		c0.246,0,0.369,0.132,0.369,0.394c0,0.115-0.151,0.401-0.455,0.861C118.62,65.603,118.268,66.242,118.095,66.66"/>
	<path fill="#040707" d="M128.714,64.226c0.336-0.213,0.586-0.36,0.75-0.442c0.336-0.163,0.664-0.245,0.983-0.245
		c0.361,0,0.632,0.104,0.812,0.312c0.18,0.209,0.271,0.523,0.271,0.94c0,0.574-0.201,1.262-0.603,2.064
		c-0.623,1.271-1.377,2.271-2.263,3c-0.746,0.614-1.447,0.922-2.104,0.922c-0.36,0-0.716-0.14-1.07-0.418
		c-1.122,2.27-2.127,4.584-3.013,6.945c-0.188,0.564-0.41,0.847-0.664,0.847c-0.124,0-0.246-0.082-0.369-0.246
		c-0.09-0.114-0.135-0.241-0.135-0.381c0-0.442,0.541-1.88,1.623-4.313c1.672-3.754,3.26-6.871,4.76-9.354
		c0.312-0.524,0.52-0.885,0.627-1.082c0.287-0.532,0.565-0.799,0.836-0.799c0.279,0,0.418,0.168,0.418,0.504
		c0,0.188-0.098,0.442-0.295,0.762C129.042,63.653,128.853,63.981,128.714,64.226 M125.947,69.327
		c0.181,0.189,0.406,0.284,0.676,0.284c0.762,0,1.606-0.677,2.534-2.028c0.344-0.501,0.619-1.013,0.824-1.537
		c0.163-0.418,0.245-0.733,0.245-0.946c0-0.147-0.035-0.259-0.104-0.332c-0.069-0.074-0.178-0.111-0.326-0.111
		c-0.386,0-0.856,0.268-1.415,0.8c-0.533,0.517-1.045,1.242-1.537,2.176C126.394,68.491,126.095,69.056,125.947,69.327"/>
	<path fill="#040707" d="M135.177,68.724c-0.271,0.476-0.537,0.878-0.799,1.205c-0.517,0.64-1.029,0.959-1.538,0.959
		c-0.442,0-0.787-0.209-1.033-0.627c-0.155-0.271-0.233-0.59-0.233-0.958c0-0.91,0.287-1.914,0.861-3.012
		c0.639-1.222,1.41-2.159,2.312-2.814c0.59-0.427,1.16-0.64,1.709-0.64c0.344,0,0.632,0.106,0.861,0.319
		c0.196,0.189,0.295,0.402,0.295,0.64c0,0.18-0.07,0.43-0.209,0.75c0.123,0.172,0.185,0.323,0.185,0.455
		c0,0.171-0.115,0.454-0.344,0.847c-0.238,0.401-0.476,0.935-0.713,1.598c-0.254,0.706-0.381,1.271-0.381,1.696
		c0,0.345,0.102,0.628,0.307,0.849c0.057,0.058,0.226,0.152,0.504,0.282c0.205,0.099,0.307,0.271,0.307,0.517
		c0,0.155-0.058,0.283-0.172,0.381c-0.123,0.106-0.266,0.16-0.43,0.16c-0.443,0-0.824-0.196-1.144-0.589
		c-0.263-0.32-0.394-0.723-0.394-1.205C135.127,69.373,135.144,69.101,135.177,68.724 M136.714,64.681
		c-0.099-0.181-0.205-0.313-0.32-0.399c-0.115-0.087-0.238-0.13-0.369-0.13c-0.624,0-1.299,0.545-2.029,1.635
		c-0.804,1.205-1.206,2.226-1.206,3.062c0,0.204,0.04,0.36,0.117,0.467c0.078,0.106,0.195,0.159,0.351,0.159
		c0.393,0,0.853-0.417,1.378-1.253c0.295-0.459,0.66-1.135,1.094-2.027c0.287-0.583,0.496-0.968,0.627-1.157
		C136.423,64.94,136.542,64.821,136.714,64.681"/>
	<path fill="#040707" d="M140.569,66.708c0.804-0.86,1.729-1.698,2.779-2.519c0.378-0.295,0.779-0.569,1.205-0.824
		c0.214-0.123,0.35-0.185,0.406-0.185c0.123,0,0.246,0.091,0.369,0.271c0.073,0.099,0.11,0.188,0.11,0.271
		c0,0.147-0.155,0.349-0.468,0.603c-0.836,0.664-1.254,1.163-1.254,1.5c0,0.188,0.106,0.282,0.32,0.282
		c0.353,0,0.958-0.291,1.819-0.873c0.146-0.099,0.271-0.146,0.37-0.146c0.064,0,0.13,0.032,0.197,0.099
		c0.073,0.072,0.109,0.15,0.109,0.232c0,0.246-0.346,0.622-1.033,1.131c-0.721,0.541-1.405,0.812-2.054,0.812
		c-0.262,0-0.504-0.069-0.725-0.21c-0.189-0.113-0.283-0.318-0.283-0.614c0-0.204,0.086-0.438,0.259-0.7
		c-0.649,0.46-1.411,1.245-2.288,2.359c-0.509,0.688-1.013,1.537-1.513,2.546c-0.189,0.375-0.422,0.564-0.701,0.564
		c-0.303,0-0.455-0.144-0.455-0.43c0-0.279,0.237-1.024,0.712-2.237c0.706-1.803,1.443-3.2,2.214-4.191
		c0.476-0.614,0.873-0.922,1.192-0.922c0.107,0,0.206,0.033,0.296,0.099c0.107,0.081,0.16,0.184,0.16,0.308
		c0,0.122-0.082,0.294-0.246,0.516c-0.033,0.041-0.25,0.315-0.652,0.823C141.049,65.754,140.766,66.234,140.569,66.708"/>
	<path fill="#040707" d="M149.503,63.39c0.139,0,0.255,0.055,0.344,0.16c0.066,0.09,0.098,0.18,0.098,0.271
		c0,0.146-0.118,0.394-0.354,0.738c-0.854,1.318-1.459,2.404-1.821,3.256c-0.385,0.878-0.725,1.778-1.02,2.705
		c-0.131,0.409-0.336,0.614-0.615,0.614c-0.164,0-0.295-0.065-0.394-0.196c-0.091-0.106-0.136-0.223-0.136-0.345
		c0-0.246,0.262-1.065,0.786-2.458c0.411-1.098,1.075-2.311,1.993-3.639c0.296-0.434,0.517-0.725,0.665-0.872
		C149.197,63.468,149.348,63.39,149.503,63.39 M151.84,58.831c0.369,0,0.554,0.188,0.554,0.565c0,0.344-0.181,0.725-0.541,1.143
		c-0.346,0.401-0.677,0.603-0.997,0.603c-0.155,0-0.283-0.058-0.381-0.172c-0.099-0.106-0.147-0.237-0.147-0.393
		c0-0.395,0.216-0.812,0.651-1.254C151.3,58.995,151.586,58.831,151.84,58.831"/>
	<path fill="#040707" d="M155.499,62.592c0.509,0,0.89,0.09,1.144,0.27c0.255,0.18,0.382,0.455,0.382,0.824
		c0,0.483-0.181,0.95-0.541,1.401c-0.345,0.426-0.859,0.77-1.55,1.031c-0.377,0.14-0.692,0.209-0.948,0.209
		c-0.343,0-0.515-0.151-0.515-0.454c0-0.205,0.098-0.36,0.295-0.467c0.048-0.024,0.327-0.095,0.836-0.209
		c0.303-0.065,0.581-0.209,0.836-0.431c0.223-0.188,0.332-0.393,0.332-0.615c0-0.171-0.049-0.298-0.146-0.381
		c-0.1-0.082-0.248-0.123-0.445-0.123c-0.476,0-1,0.193-1.574,0.578c-0.663,0.436-0.995,0.951-0.995,1.549
		c0,0.427,0.216,0.959,0.651,1.598c0.483,0.697,0.725,1.286,0.725,1.771c0,0.721-0.319,1.285-0.957,1.695
		c-0.395,0.255-0.842,0.382-1.342,0.382c-0.786,0-1.385-0.283-1.795-0.849c-0.287-0.401-0.431-0.876-0.431-1.425
		c0-0.64,0.164-1.177,0.493-1.61c0.212-0.286,0.433-0.431,0.663-0.431c0.204,0,0.308,0.082,0.308,0.246
		c0,0.065-0.037,0.164-0.11,0.294c-0.19,0.354-0.284,0.767-0.284,1.242c0,0.401,0.144,0.741,0.432,1.02
		c0.253,0.247,0.545,0.369,0.872,0.369c0.32,0,0.57-0.106,0.751-0.319c0.148-0.18,0.221-0.409,0.221-0.688
		c0-0.344-0.196-0.79-0.591-1.339c-0.54-0.754-0.812-1.438-0.812-2.054c0-0.818,0.447-1.545,1.341-2.175
		C153.614,62.894,154.532,62.592,155.499,62.592"/>
	<path fill="#040707" d="M161.259,62.825c0.672,0,1.01,0.41,1.01,1.229c0,1.09-0.505,2.471-1.515,4.142
		c-1.098,1.812-2.159,2.717-3.185,2.717c-0.476,0-0.824-0.221-1.045-0.663c-0.115-0.222-0.174-0.488-0.174-0.8
		c0-1.049,0.362-2.188,1.084-3.417c0.672-1.139,1.464-2.022,2.373-2.654C160.34,63.009,160.825,62.825,161.259,62.825
		 M159.981,67.471c-0.205-0.163-0.308-0.29-0.308-0.381c0-0.065,0.131-0.245,0.394-0.541c0.738-0.827,1.106-1.495,1.106-2.003
		c0-0.066-0.021-0.132-0.061-0.197c-0.066-0.124-0.17-0.185-0.308-0.185c-0.263,0-0.649,0.255-1.157,0.763
		c-0.655,0.655-1.156,1.331-1.499,2.027c-0.403,0.795-0.604,1.455-0.604,1.979c0,0.14,0.037,0.262,0.111,0.369
		c0.106,0.146,0.241,0.221,0.404,0.221c0.394,0,0.816-0.295,1.268-0.886c0.196-0.246,0.356-0.499,0.479-0.761
		C159.931,67.615,159.989,67.48,159.981,67.471"/>
	<path fill="#040707" d="M164.881,66.537c0.105-0.099,0.21-0.196,0.308-0.295c1.713-1.671,2.861-2.507,3.442-2.507
		c0.32,0,0.48,0.176,0.48,0.529c0,0.245-0.144,0.535-0.43,0.872c-1.566,1.827-2.35,3.438-2.35,4.83c0,0.451,0.124,0.881,0.369,1.291
		c0.114,0.188,0.173,0.336,0.173,0.442c0,0.098-0.05,0.191-0.148,0.282c-0.107,0.114-0.235,0.172-0.382,0.172
		c-0.335,0-0.618-0.214-0.849-0.639c-0.222-0.401-0.33-0.889-0.33-1.463c0-1.105,0.416-2.331,1.254-3.675
		c-1.115,0.713-2.152,1.975-3.112,3.785c-0.246,0.436-0.508,0.651-0.787,0.651c-0.138,0-0.255-0.049-0.344-0.147
		c-0.116-0.114-0.173-0.262-0.173-0.442c0-0.442,0.505-1.602,1.514-3.479c0.54-1.016,0.967-1.753,1.278-2.212
		c0.311-0.45,0.577-0.676,0.8-0.676c0.106,0,0.209,0.049,0.308,0.147c0.113,0.114,0.172,0.245,0.172,0.393
		c0,0.181-0.12,0.439-0.357,0.774C165.373,65.672,165.093,66.127,164.881,66.537"/>
</g>
</svg>
